<svg xmlns="http://www.w3.org/2000/svg" x="0px" y="0px"
width="30" height="30"
viewBox="0 0 172 172"
style=" fill:#000000;"><g fill="none" fill-rule="nonzero" stroke="none" stroke-width="1" stroke-linecap="butt" stroke-linejoin="miter" stroke-miterlimit="10" stroke-dasharray="" stroke-dashoffset="0" font-family="none" font-weight="none" font-size="none" text-anchor="none" style="mix-blend-mode: normal"><path d="M0,172v-172h172v172z" fill="none"></path><g fill="#ffffff"><path d="M137.6,22.93333h-103.2c-6.33533,0 -11.46667,5.13133 -11.46667,11.46667v103.2c0,6.33533 5.13133,11.46667 11.46667,11.46667h103.2c6.33533,0 11.46667,-5.13133 11.46667,-11.46667v-103.2c0,-6.33533 -5.13133,-11.46667 -11.46667,-11.46667zM120.4,91.73333h-68.8c-3.1648,0 -5.73333,-2.56853 -5.73333,-5.73333v0c0,-3.1648 2.56853,-5.73333 5.73333,-5.73333h68.8c3.1648,0 5.73333,2.56853 5.73333,5.73333v0c0,3.1648 -2.56853,5.73333 -5.73333,5.73333zM120.4,63.06667h-68.8c-3.1648,0 -5.73333,-2.56853 -5.73333,-5.73333v0c0,-3.1648 2.56853,-5.73333 5.73333,-5.73333h68.8c3.1648,0 5.73333,2.56853 5.73333,5.73333v0c0,3.1648 -2.56853,5.73333 -5.73333,5.73333zM120.4,120.4h-68.8c-3.1648,0 -5.73333,-2.56853 -5.73333,-5.73333v0c0,-3.1648 2.56853,-5.73333 5.73333,-5.73333h68.8c3.1648,0 5.73333,2.56853 5.73333,5.73333v0c0,3.1648 -2.56853,5.73333 -5.73333,5.73333z"></path></g></g></svg>