<svg xmlns="http://www.w3.org/2000/svg" x="0px" y="0px"
width="30" height="30"
viewBox="0 0 172 172"
style=" fill:#000000;"><g fill="none" fill-rule="nonzero" stroke="none" stroke-width="1" stroke-linecap="butt" stroke-linejoin="miter" stroke-miterlimit="10" stroke-dasharray="" stroke-dashoffset="0" font-family="none" font-weight="none" font-size="none" text-anchor="none" style="mix-blend-mode: normal"><path d="M0,172v-172h172v172z" fill="none"></path><g fill="#24B47E"><path d="M86.0112,22.88854c-12.61333,0 -22.93333,10.26267 -22.93333,22.93333c0,12.67067 10.32,22.93334 22.93333,22.93334c12.67067,0 22.98933,-10.26267 22.98933,-22.93334c0,-12.67067 -10.31866,-22.93333 -22.98933,-22.93333zM34.4112,45.88906c-12.67067,0 -22.93333,10.26267 -22.93333,22.93333c0,12.67067 10.26267,22.93333 22.93333,22.93333c12.67067,0 22.93333,-10.26267 22.93333,-22.93333c0,-12.67067 -10.26267,-22.93333 -22.93333,-22.93333zM34.4112,91.75573h-5.73333c-12.67067,0 -22.93333,10.26267 -22.93333,22.93333v17.13282c0,3.15333 2.58,5.73333 5.73333,5.73333h149.06667c3.15333,0 5.73333,-2.58 5.73333,-5.73333v-17.13282c0,-12.67067 -10.26267,-22.93333 -22.93333,-22.93333h-5.73333h-5.73333c-4.87333,0 -9.39729,1.53949 -13.12396,4.17683c-3.84133,-9.116 -13.76672,-15.71068 -25.52005,-15.71067h-14.38933c-11.75333,0 -21.66752,6.59333 -25.50885,15.76667c-3.72667,-2.63734 -8.26048,-4.23282 -13.19115,-4.23282zM137.6112,91.75573c12.67067,0 22.93333,-10.26267 22.93333,-22.93333c0,-12.67067 -10.26267,-22.93333 -22.93333,-22.93333c-12.67067,0 -22.93333,10.26267 -22.93333,22.93333c0,12.67067 10.26267,22.93333 22.93333,22.93333zM34.4112,57.35573c6.30667,0 11.46667,5.16 11.46667,11.46667c0,6.30667 -5.16,11.46667 -11.46667,11.46667c-6.30667,0 -11.46667,-5.16 -11.46667,-11.46667c0,-6.30667 5.16,-11.46667 11.46667,-11.46667zM137.6112,57.35573c6.30667,0 11.46667,5.16 11.46667,11.46667c0,6.30667 -5.16,11.46667 -11.46667,11.46667c-6.30667,0 -11.46667,-5.16 -11.46667,-11.46667c0,-6.30667 5.16,-11.46667 11.46667,-11.46667zM28.67786,103.22239h11.46667c6.192,0 11.46667,5.27467 11.46667,11.46667v11.39948h-34.4v-11.39948c0,-6.30667 5.16,-11.46667 11.46667,-11.46667zM131.87786,103.22239h11.46667c6.192,0 11.46667,5.27467 11.46667,11.46667v11.39948h-34.34401v-11.98177c0.28667,-6.02 5.27601,-10.88438 11.41067,-10.88438z"></path></g></g></svg>