<svg xmlns="http://www.w3.org/2000/svg" x="0px" y="0px"
width="50" height="50"
viewBox="0 0 172 172"
style=" fill:#000000;"><g fill="none" fill-rule="nonzero" stroke="none" stroke-width="1" stroke-linecap="butt" stroke-linejoin="miter" stroke-miterlimit="10" stroke-dasharray="" stroke-dashoffset="0" font-family="none" font-weight="none" font-size="none" text-anchor="none" style="mix-blend-mode: normal"><path d="M0,172v-172h172v172z" fill="none"></path><g fill="white"><path d="M86,13.76c-43.68531,0 -79.12,30.96 -79.12,68.8c0,21.32531 11.35469,41.62938 30.96,54.35469c-0.34937,3.77594 -2.40531,12.37594 -9.63469,22.69594l-3.77594,5.50937h6.88c18.57062,0 31.29594,-11.35469 35.42125,-15.82937c6.19469,1.38406 12.73875,2.06937 19.26937,2.06937c43.68531,0 79.12,-30.96 79.12,-68.8c0,-37.84 -35.43469,-68.8 -79.12,-68.8zM51.6,89.44c-3.78937,0 -6.88,-3.09062 -6.88,-6.88c0,-3.78937 3.09063,-6.88 6.88,-6.88c3.78938,0 6.88,3.09063 6.88,6.88c0,3.78938 -3.09062,6.88 -6.88,6.88zM86,89.44c-3.78937,0 -6.88,-3.09062 -6.88,-6.88c0,-3.78937 3.09063,-6.88 6.88,-6.88c3.78938,0 6.88,3.09063 6.88,6.88c0,3.78938 -3.09062,6.88 -6.88,6.88zM120.4,89.44c-3.78937,0 -6.88,-3.09062 -6.88,-6.88c0,-3.78937 3.09063,-6.88 6.88,-6.88c3.78938,0 6.88,3.09063 6.88,6.88c0,3.78938 -3.09062,6.88 -6.88,6.88z"></path></g></g></svg>