<svg xmlns="http://www.w3.org/2000/svg" x="0px" y="0px"
width="30" height="30"
viewBox="0 0 172 172"
style=" fill:#000000;"><g fill="none" fill-rule="nonzero" stroke="none" stroke-width="1" stroke-linecap="butt" stroke-linejoin="miter" stroke-miterlimit="10" stroke-dasharray="" stroke-dashoffset="0" font-family="none" font-weight="none" font-size="none" text-anchor="none" style="mix-blend-mode: normal"><path d="M0,172v-172h172v172z" fill="none"></path><g fill="white"><path d="M131.86667,17.2c-12.66573,0 -22.93333,10.2676 -22.93333,22.93333c0.01022,1.61202 0.19038,3.21847 0.5375,4.79271l-52.07031,26.03516c-4.34502,-5.00238 -10.64127,-7.88101 -17.26719,-7.89453c-12.66573,0 -22.93333,10.2676 -22.93333,22.93333c0,12.66573 10.2676,22.93333 22.93333,22.93333c6.62805,-0.00746 12.92873,-2.88217 17.27839,-7.88333l52.03672,26.02396c-0.33959,1.57504 -0.51224,3.18148 -0.51511,4.79271c0,12.66573 10.2676,22.93333 22.93333,22.93333c12.66573,0 22.93333,-10.2676 22.93333,-22.93333c0,-12.66573 -10.2676,-22.93333 -22.93333,-22.93333c-6.62805,0.00746 -12.92873,2.88217 -17.27839,7.88333l-52.03672,-26.02396c0.33959,-1.57504 0.51224,-3.18148 0.51511,-4.79271c-0.01101,-1.60827 -0.19117,-3.21093 -0.5375,-4.78151l52.07031,-26.03516c4.34709,4.99822 10.64305,7.87264 17.26719,7.88333c12.66573,0 22.93333,-10.2676 22.93333,-22.93333c0,-12.66573 -10.2676,-22.93333 -22.93333,-22.93333z"></path></g></g></svg>